<?xml version="1.0" standalone="no"?>
<!DOCTYPE svg PUBLIC "-//W3C//DTD SVG 20010904//EN"
 "http://www.w3.org/TR/2001/REC-SVG-20010904/DTD/svg10.dtd">
<svg version="1.0" xmlns="http://www.w3.org/2000/svg"
 width="192.000000pt" height="192.000000pt" viewBox="0 0 192.000000 192.000000"
 preserveAspectRatio="xMidYMid meet">

<g transform="translate(0.000000,192.000000) scale(0.100000,-0.100000)"
fill="#000000" stroke="none">
<path d="M342 1249 c-23 -12 -52 -35 -65 -53 -21 -30 -22 -38 -22 -286 0 -253
0 -255 24 -289 37 -52 90 -71 199 -71 l92 0 150 -100 c83 -55 150 -97 150 -93
-1 5 -7 37 -15 73 -8 36 -14 77 -15 93 l0 27 133 0 c107 0 140 4 173 19 58 26
87 71 92 144 l5 59 -99 -66 c-54 -36 -99 -64 -100 -63 -1 1 6 44 17 96 10 51
16 97 13 102 -3 5 -63 9 -134 9 -135 0 -170 7 -209 43 -49 45 -61 91 -61 240
l0 137 -142 0 c-125 0 -148 -3 -186 -21z"/>
</g>
</svg>
